<svg xmlns="http://www.w3.org/2000/svg" xmlns:xlink="http://www.w3.org/1999/xlink" version="1.1" id="Layer_1" x="0px" y="0px" style="enable-background:new 0 0 1089.8 484.8;" xml:space="preserve" viewBox="145 142.2 799.4 199.9"><style type="text/css">	.st0{fill:#FFFFFF;}</style><g>	<path class="st0" d="M529.7,342.1c-36.5,0-58.6-19.3-59.1-48.3H515c0,9.8,6.8,14.3,15.6,14.3c6.7,0,13.1-3.4,13.1-10.4   c0-7.7-10.1-9.9-23-12c-20.8-3.4-48.3-9.6-48.3-42.1c0-26.8,22.9-44.1,57.2-44.1c34.1,0,56.2,18.1,56.7,45.2h-43.2   c0-8.5-5.7-12.5-14.1-12.5c-7.4,0-12.4,3.7-12.4,9.9c0,7.6,10.2,9.4,22.9,11.7c21.1,3.8,49.3,8.1,49.3,42.1   C588.9,323.8,565.3,342.1,529.7,342.1L529.7,342.1z"></path>	<path class="st0" d="M662.3,342.1c-36.5,0-58.6-19.3-59.1-48.3h44.4c0,9.8,6.8,14.3,15.6,14.3c6.7,0,13.1-3.4,13.1-10.4   c0-7.7-10.1-9.9-23-12c-20.8-3.4-48.3-9.6-48.3-42.1c0-26.8,22.9-44.1,57.2-44.1c34.1,0,56.2,18.1,56.7,45.2h-43.2   c0-8.5-5.7-12.5-14.1-12.5c-7.4,0-12.4,3.7-12.4,9.9c0,7.6,10.2,9.4,22.9,11.7c21.1,3.8,49.3,8.1,49.3,42.1   C721.4,323.8,697.8,342.1,662.3,342.1L662.3,342.1z"></path>	<path class="st0" d="M217.6,241C217.7,241,217.7,241,217.6,241"></path>	<path class="st0" d="M241.5,308.2C241.5,308.2,241.5,308.2,241.5,308.2"></path>	<path class="st0" d="M737.3,199.8h46.1v142.3h-46.1V199.8z"></path>	<path class="st0" d="M944.4,269.5c0,4-0.4,8.1-1,12.2h-99.4c3,15.3,12.8,23.3,27.3,23.3c10.8,0,19.8-4.7,24.2-12.6h45.9   c-9.4,30.5-36.5,49.6-70.1,49.6c-41.8,0-72.7-30.5-72.7-71.4c0-41,30.7-71.2,72.7-71.2C914.6,199.5,944.4,230.3,944.4,269.5   L944.4,269.5z M844.9,256.2H899c-4-13.4-13.7-20.6-27.6-20.6C858,235.6,848.7,242.9,844.9,256.2z"></path>	<path class="st0" d="M421.9,203.9l-4.7,10.3c-11-9.1-25.1-14.4-40.9-14.4c-37,0-64.4,24.1-69.4,59.3l0,1.1H346   c4.4-12.4,16.1-21.2,30-21.2c17.6,0,31.8,14.3,31.8,31.8c0,17.6-14.3,31.8-31.8,31.8c-13.9,0-25.6-8.9-30-21.2h-39.2   c4.6,35.9,32.2,61,69.5,60.7c16.1-0.1,29.6-5.1,40.4-14l3.9,9.5h35.6V203.9L421.9,203.9z"></path>	<path class="st0" d="M247.7,281.5c-4.4,12.4-16.1,21.2-30,21.2c-17.6,0-31.8-14.3-31.8-31.8c0-17.6,14.3-31.8,31.8-31.8   c13.9,0,25.6,8.9,30,21.2h42.2l0-1.3c-5-35.6-33.2-59.3-70.9-59.3c-43.2,0-74,29.5-74,70.9c0,41.4,31,71.5,73.9,71.5l0,0   c37.6,0,66.1-24.4,71.4-60.6H247.7z"></path>	<circle class="st0" cx="760.1" cy="165" r="22.8"></circle></g></svg>